<?xml version="1.0"?>
<svg xmlns="http://www.w3.org/2000/svg" xmlns:xlink="http://www.w3.org/1999/xlink" xmlns:svgjs="http://svgjs.com/svgjs" version="1.1" width="512" height="512" x="0" y="0" viewBox="0 0 483.695 483.695" style="enable-background:new 0 0 512 512" xml:space="preserve" class=""><g>
<g xmlns="http://www.w3.org/2000/svg">
	<g>
		<polygon style="" points="473.345,89.815 440.431,122.729 408.562,135.79 307.206,237.145 306.162,238.713     283.696,216.247 285.264,215.202 386.619,113.847 398.113,80.933 431.549,47.496   " fill="#5E81AC" data-original="#00efd1" class=""/>
		<g>
			<path style="" d="M432.072,366.19c15.592,16.187,15.592,41.805,0,57.992c-15.814,16.014-41.616,16.176-57.63,0.362     c-0.122-0.12-0.242-0.241-0.362-0.362l-72.62-72.62l57.992-57.992L432.072,366.19z" fill="#8FBCBB" data-original="#00acea" class=""/>
			<polygon style="" points="328.104,262.745 359.451,293.57 301.46,351.562 264.888,314.99 288.398,280.509      292.055,276.851 303.027,287.823    " fill="#8FBCBB" data-original="#00acea" class=""/>
			<path style="" d="M359.451,85.113c-43.886-0.522-77.845,22.988-108.147,53.812l-1.045,1.045l-53.29-53.29h0.522     c38.661-23.51,91.429-26.645,138.971-10.971C344.414,78.088,352.113,81.237,359.451,85.113z" fill="#8FBCBB" data-original="#00acea" class=""/>
		</g>
		<g>
			<polygon style="" points="329.149,261.7 328.104,262.745 303.027,287.823 292.055,276.851 244.513,229.309      233.541,217.815 258.619,192.737 259.141,192.215 283.696,216.247 306.162,238.713    " fill="#5E81AC" data-original="#00efd1" class=""/>
			<polygon style="" points="264.888,314.99 258.096,325.962 147.337,436.198 85.688,373.504 195.402,263.268      205.851,256.476 240.333,233.488 244.513,229.309 292.055,276.851 288.398,280.509    " fill="#5E81AC" data-original="#00efd1" class=""/>
		</g>
		<g>
			<polygon style="" points="258.619,192.737 233.541,217.815 244.513,229.309 240.333,233.488 205.851,256.476      205.329,255.431 180.251,230.353 177.639,227.741 235.631,169.749 238.243,172.362    " fill="#8FBCBB" data-original="#00acea" class=""/>
			<polygon style="" points="136.888,231.398 102.929,197.439 84.121,178.631 186.521,76.753 196.97,86.68      250.26,139.97 257.574,147.807 235.631,169.749 177.639,227.741 155.696,249.684    " fill="#8FBCBB" data-original="#00acea" class=""/>
			
				<rect x="78.459" y="206.94" transform="matrix(-0.7071 0.7071 -0.7071 -0.7071 338.8809 321.9945)" style="" width="48.588" height="48.483" fill="#8FBCBB" data-original="#00acea" class=""/>
			<polygon style="" points="102.406,265.88 121.215,284.166 81.509,323.872 10.455,252.819 49.639,213.113      68.447,231.398    " fill="#8FBCBB" data-original="#00acea" class=""/>
		</g>
	</g>
	<path style="" d="M444.088,132.656c1.412-0.562,2.667-1.459,3.657-2.612l32.914-32.914   c4.047-4.24,4.047-10.911,0-15.151l-41.796-41.796c-2.055-2.1-4.9-3.238-7.837-3.135l0,0c-2.756,0.039-5.385,1.166-7.314,3.135   l-32.914,33.437c-1.154,0.99-2.05,2.245-2.612,3.657L377.215,108.1l-93.518,93.518l-17.241-17.241l-3.657-2.09l-12.539-12.539   l15.151-14.629c3.725-4.165,3.725-10.464,0-14.629h-0.522c32.914-30.824,62.171-44.931,94.563-44.408   c4.803-0.54,8.868-3.792,10.449-8.359c0.945-4.696-1.423-9.433-5.747-11.494c-7.856-4.211-16.074-7.708-24.555-10.449   c-49.11-16.196-101.355-13.061-141.061,8.359l-4.702-4.702c-4.165-3.725-10.464-3.725-14.629,0l-102.4,101.878   c-1.969,1.929-3.095,4.558-3.135,7.314c-0.167,2.796,0.995,5.507,3.135,7.314l10.971,11.494L68.447,216.77l-10.971-10.971   c-4.24-4.047-10.911-4.047-15.151,0L3.141,244.982c-2.1,2.055-3.238,4.9-3.135,7.837c0.039,2.756,1.166,5.385,3.135,7.314   l71.053,71.053c1.929,1.969,4.558,3.095,7.314,3.135c2.782,0.089,5.46-1.059,7.314-3.135l39.706-39.184   c2.1-2.055,3.238-4.9,3.135-7.837c-0.039-2.756-1.166-5.385-3.135-7.314l-10.971-10.971l19.331-19.853l11.494,11.494   c1.908,1.947,4.604,2.91,7.314,2.612c2.692,0.159,5.332-0.784,7.314-2.612l14.629-15.151l12.016,12.539l0,0l-1.567,1.045   L77.851,366.19c-3.725,4.165-3.725,10.464,0,14.629l62.171,62.694c2.055,2.1,4.9,3.238,7.837,3.135   c2.756-0.039,5.385-1.166,7.314-3.135l110.237-110.237l1.045-1.567l0,0l100.31,99.788c9.401,9.823,22.453,15.309,36.049,15.151   c13.74,0.117,26.939-5.351,36.571-15.151c19.851-20.137,19.851-52.483,0-72.62l-100.31-100.31c-0.445-1.768-1.346-3.39-2.612-4.702   L320.79,238.19l93.518-93.518L444.088,132.656z M298.325,246.027h0.522l15.673,15.673l-11.494,10.971l-54.857-54.857l10.971-10.971   L298.325,246.027z M318.7,80.933c-25.867,9.459-49.263,24.64-68.441,44.408l-36.049-36.049   C244.513,74.664,281.606,72.051,318.7,80.933z M81.509,309.243l-56.424-56.425l24.555-25.078l45.453,45.453l0,0l10.971,10.971   L81.509,309.243z M102.406,251.251l-19.331-19.853l19.853-19.331l19.331,19.331L102.406,251.251z M155.696,235.056l-45.453-45.453   l0,0l-10.971-10.971l87.249-87.249l56.424,56.424L155.696,235.056z M192.268,227.741l43.363-42.841l7.837,7.837L226.227,210.5   c-4.04,3.706-4.31,9.986-0.603,14.025c0.192,0.21,0.394,0.411,0.603,0.603l3.135,3.135l-21.943,14.629L192.268,227.741z    M147.86,421.57l-47.543-48.065l101.878-101.878l42.318-28.212l33.437,33.959l-28.212,41.796L147.86,421.57z M293.1,292.525   l2.612,3.135c1.799,2.213,4.464,3.546,7.314,3.657l0,0c2.818-0.231,5.439-1.541,7.314-3.657l17.763-18.286l16.718,16.718   l-43.363,42.841l-22.988-22.988L293.1,292.525z M424.758,416.868c-5.841,5.763-13.738,8.96-21.943,8.882   c-8.035-0.003-15.74-3.198-21.42-8.882l-65.306-65.306l43.363-42.841l65.306,64.784   C436.368,385.627,436.368,404.745,424.758,416.868z M401.247,128.476l-95.086,95.086l-7.837-7.314l95.608-95.086   c1.003-1.218,1.718-2.646,2.09-4.18l10.971-30.302l24.555-24.555l27.167,27.69l-24.555,24.033l-29.257,12.016   C403.492,126.426,402.237,127.322,401.247,128.476z" fill="#353763" data-original="#083863" class=""/>
</g>
<g xmlns="http://www.w3.org/2000/svg">
</g>
<g xmlns="http://www.w3.org/2000/svg">
</g>
<g xmlns="http://www.w3.org/2000/svg">
</g>
<g xmlns="http://www.w3.org/2000/svg">
</g>
<g xmlns="http://www.w3.org/2000/svg">
</g>
<g xmlns="http://www.w3.org/2000/svg">
</g>
<g xmlns="http://www.w3.org/2000/svg">
</g>
<g xmlns="http://www.w3.org/2000/svg">
</g>
<g xmlns="http://www.w3.org/2000/svg">
</g>
<g xmlns="http://www.w3.org/2000/svg">
</g>
<g xmlns="http://www.w3.org/2000/svg">
</g>
<g xmlns="http://www.w3.org/2000/svg">
</g>
<g xmlns="http://www.w3.org/2000/svg">
</g>
<g xmlns="http://www.w3.org/2000/svg">
</g>
<g xmlns="http://www.w3.org/2000/svg">
</g>
</g></svg>
